# xmcd
#
# Track frame offsets: 
#        182
#        17460
#        35427
#        51040
#        69895
#        92845
#        102845
#        123477
#        136527
#        155612
#        172437
#        191620
#        204515
#        223282
#
# Disc length: 3250 seconds
#
# Revision: 8
# Processed by: cddbd v1.5.2PL0 Copyright (c) Steve Scherf et al.
# Submitted via: ExactAudioCopyFreeDBPlugin 1.0
#
DISCID=c30cb00e
DTITLE=JOHN DENVER - The Very Best Of
DYEAR=1994
DGENRE=Country
TTITLE0=Calypso
TTITLE1=Windsong
TTITLE2=Rocky Mountain Suite (Cold Nights In Canada)
TTITLE3=Rocky Mountain High
TTITLE4=Sunshine On My Shoulders
TTITLE5=The Eagle And The Hawk
TTITLE6=Eclipse
TTITLE7=The Flower That Shattered The Stone
TTITLE8=Raven's Child
TTITLE9=Children Of The Universe
TTITLE10=To The Wild Country
TTITLE11=American Child
TTITLE12=Islands
TTITLE13=Earth Day Every Day (Celebrate)
EXTD=YEAR: 1993
EXTT0=
EXTT1=
EXTT2=
EXTT3=
EXTT4=
EXTT5=
EXTT6=
EXTT7=
EXTT8=
EXTT9=
EXTT10=
EXTT11=
EXTT12=
EXTT13=
PLAYORDER=
